<mxfile host="65bd71144e">
    <diagram id="7-m3SMGcP522STzaIjeq" name="Страница 1">
        <mxGraphModel dx="419" dy="286" grid="1" gridSize="10" guides="1" tooltips="1" connect="1" arrows="1" fold="1" page="1" pageScale="1" pageWidth="827" pageHeight="1169" math="0" shadow="0">
            <root>
                <mxCell id="0"/>
                <mxCell id="1" parent="0"/>
                <mxCell id="2" value="Начало" style="ellipse;whiteSpace=wrap;html=1;fillColor=#d80073;fontColor=#000000;strokeColor=#A50040;" vertex="1" parent="1">
                    <mxGeometry x="150" y="40" width="120" height="40" as="geometry"/>
                </mxCell>
                <mxCell id="3" value="string[ ]array = {.....}" style="shape=parallelogram;perimeter=parallelogramPerimeter;whiteSpace=wrap;html=1;fixedSize=1;fillColor=#6a00ff;fontColor=#000000;strokeColor=#3700CC;" vertex="1" parent="1">
                    <mxGeometry x="120" y="120" width="180" height="60" as="geometry"/>
                </mxCell>
                <mxCell id="4" value="for(int i = 0; i &amp;lt; array.Length; i ++" style="shape=hexagon;perimeter=hexagonPerimeter2;whiteSpace=wrap;html=1;fixedSize=1;fillColor=#e51400;fontColor=#000000;strokeColor=#B20000;" vertex="1" parent="1">
                    <mxGeometry x="90" y="220" width="230" height="80" as="geometry"/>
                </mxCell>
                <mxCell id="5" value="&lt;font color=&quot;#000000&quot;&gt;if (array[i].Length &amp;lt; 3&lt;/font&gt;" style="rhombus;whiteSpace=wrap;html=1;fillColor=#fad9d5;strokeColor=#ae4132;" vertex="1" parent="1">
                    <mxGeometry x="100" y="340" width="220" height="80" as="geometry"/>
                </mxCell>
                <mxCell id="8" value="" style="rounded=0;whiteSpace=wrap;html=1;fontColor=#000000;" vertex="1" parent="1">
                    <mxGeometry x="120" y="450" width="180" height="60" as="geometry"/>
                </mxCell>
            </root>
        </mxGraphModel>
    </diagram>
</mxfile>